<mxfile host="app.diagrams.net" modified="2024-05-28T05:47:18.609Z" agent="Mozilla/5.0 (Windows NT 10.0; Win64; x64) AppleWebKit/537.36 (KHTML, like Gecko) Chrome/125.0.0.0 Safari/537.36" version="24.4.9" etag="SjSnPDw3-pg7B87gafRZ" type="github">
  <diagram name="페이지-1" id="N0a90yzCSFmDW6ha1G4W">
    <mxGraphModel>
      <root>
        <mxCell id="0" />
        <mxCell id="1" parent="0" />
      </root>
    </mxGraphModel>
  </diagram>
</mxfile>
